<?xml version="1.0" encoding="UTF-8"?>
<!-- Uploaded to: SVG Repo, www.svgrepo.com, Generator: SVG Repo Mixer Tools -->
<svg width="800px" height="800px" viewBox="0 0 24 24" version="1.1" xmlns="http://www.w3.org/2000/svg" xmlns:xlink="http://www.w3.org/1999/xlink">
    <title>Users</title>
    <g id="Users" stroke="none" stroke-width="1" fill="none" fill-rule="evenodd">
        <rect id="Container" x="0" y="0" width="24" height="24">

</rect>
        <path d="M9,11 C10.3807119,11 11.5,9.88071187 11.5,8.5 C11.5,7.11928813 10.3807119,6 9,6 C7.61928813,6 6.5,7.11928813 6.5,8.5 C6.5,9.88071187 7.61928813,11 9,11 Z" id="shape-1" stroke="#030819" stroke-width="2" stroke-linecap="round" stroke-dasharray="0,0">

</path>
        <path d="M3,20 C3,16.6862915 5.6862915,14 9,14 C12.3137085,14 15,16.6862915 15,20 L15,20 L15,20" id="shape-2" stroke="#030819" stroke-width="2" stroke-linecap="round" stroke-dasharray="0,0">

</path>
        <path d="M15,11 C16.3807119,11 17.5,9.88071187 17.5,8.5 C17.5,7.11928813 16.3807119,6 15,6" id="shape-3" stroke="#030819" stroke-width="2" stroke-linecap="round" stroke-dasharray="0,0">

</path>
        <path d="M16.1344055,14.1070888 C18.9057082,14.6373905 21,17.0741212 21,20" id="shape-4" stroke="#030819" stroke-width="2" stroke-linecap="round" stroke-dasharray="0,0">

</path>
    </g>
</svg>